<?xml version="1.0" encoding="UTF-8"?>
<svg xmlns="http://www.w3.org/2000/svg" width="25.799" height="23.344" viewBox="0 0 25.799 23.344">
  <path id="Path_627" data-name="Path 627" d="M11.6,15.184l-.485.554Q7.821,19.5,4.528,23.271a.181.181,0,0,1-.15.073q-1.89,0-3.78,0H.539c0-.052.035-.074.059-.1q.87-1,1.741-1.993l6.016-6.881L9.673,12.86l.08-.1L0,0H.133Q4.091,0,8.048,0a.2.2,0,0,1,.184.09q2.739,3.63,5.483,7.257c.026.035.054.068.085.107.03-.032.053-.055.075-.08Q17.058,3.734,20.241.091A.224.224,0,0,1,20.428,0q1.857,0,3.713,0h.1a.14.14,0,0,1,.008.016.016.016,0,0,1,0,.01.2.2,0,0,1-.018.028c-.011.014-.024.028-.036.042L15.657,9.859a.11.11,0,0,0-.012.018.132.132,0,0,0,0,.022L25.8,23.339c-.064,0-.106,0-.148,0H18.259c-.107,0-.215,0-.322,0a.166.166,0,0,1-.157-.079q-.655-.863-1.315-1.723l-3.977-5.2-.831-1.086c-.015-.02-.033-.039-.057-.069m9.519,5.781-.12-.16-2.6-3.441L15.1,13,10.689,7.163Q8.858,4.742,7.029,2.32a.164.164,0,0,0-.147-.075c-.719,0-1.438,0-2.156,0-.027,0-.055.006-.1.01.031.044.054.077.078.109L7.132,5.536l5.719,7.482q3.008,3.935,6.014,7.872a.186.186,0,0,0,.166.083c.656,0,1.312,0,1.968,0,.032,0,.065,0,.12-.006" transform="translate(0 -0.001)" fill="#6a6a6a"></path>
</svg>
