<?xml version="1.0" encoding="UTF-8"?>
<svg xmlns="http://www.w3.org/2000/svg" width="37.94" height="37.94" viewBox="0 0 37.94 37.94">
  <g id="Group_1995" data-name="Group 1995" transform="translate(-106.25 -0.03)">
    <circle id="Ellipse_312" data-name="Ellipse 312" cx="18.97" cy="18.97" r="18.97" transform="translate(106.25 0.03)" fill="#fff"></circle>
    <path id="Path_628" data-name="Path 628" d="M7.847,10.271l-.328.375q-2.228,2.548-4.456,5.1a.123.123,0,0,1-.1.049H.364c0-.035.023-.05.04-.069l1.178-1.348,4.07-4.655L6.543,8.7,6.6,8.635,0,0H.09Q2.767,0,5.444,0a.138.138,0,0,1,.125.061Q7.422,2.518,9.278,4.971l.057.072c.02-.021.036-.037.051-.054Q11.539,2.526,13.692.062A.151.151,0,0,1,13.818,0q1.256,0,2.512,0h.065L16.4.013a.011.011,0,0,1,0,.007.132.132,0,0,1-.012.019l-.024.029-5.773,6.6a.074.074,0,0,0-.008.012.089.089,0,0,0,0,.015l6.872,9.091-.1,0h-5c-.073,0-.146,0-.218,0a.112.112,0,0,1-.106-.053q-.443-.584-.889-1.166l-2.69-3.52-.562-.735c-.01-.014-.022-.027-.039-.047m6.439,3.911-.081-.108-1.76-2.328L10.215,8.794,7.23,4.846Q5.992,3.208,4.755,1.57a.111.111,0,0,0-.1-.05c-.486,0-.972,0-1.459,0-.019,0-.037,0-.064.007.021.03.036.052.053.074l1.64,2.145L8.693,8.806q2.035,2.662,4.068,5.325a.126.126,0,0,0,.112.056c.444,0,.887,0,1.331,0,.022,0,.044,0,.081,0" transform="translate(117.109 11.432)" fill="#4a65d6"></path>
  </g>
</svg>
