<?xml version="1.0" encoding="UTF-8"?>
<svg xmlns="http://www.w3.org/2000/svg" id="logo" width="154.1" height="32.837" viewBox="0 0 154.1 32.837">
  <path id="Path_596" data-name="Path 596" d="M67.1,25.853A8.677,8.677,0,0,1,62.6,24.7a8.225,8.225,0,0,1-3.076-3.214A9.676,9.676,0,0,1,58.4,16.772a9.676,9.676,0,0,1,1.125-4.715A8.232,8.232,0,0,1,62.6,8.843,8.677,8.677,0,0,1,67.1,7.69a8.391,8.391,0,0,1,5.375,1.728,7.783,7.783,0,0,1,2.789,4.768H70.732A3.433,3.433,0,0,0,69.4,12.213a4.05,4.05,0,0,0-5.359.682A5.625,5.625,0,0,0,62.8,16.772a5.625,5.625,0,0,0,1.243,3.876,3.9,3.9,0,0,0,3.025,1.4,3.944,3.944,0,0,0,2.335-.7,3.4,3.4,0,0,0,1.328-1.992h4.536a7.943,7.943,0,0,1-2.789,4.715A8.226,8.226,0,0,1,67.1,25.853" transform="translate(-4.298 -0.284)"></path>
  <path id="Path_597" data-name="Path 597" d="M86.077,25.853a8.837,8.837,0,0,1-4.47-1.117,7.931,7.931,0,0,1-3.056-3.144,9.6,9.6,0,0,1-1.109-4.68,10.276,10.276,0,0,1,1.092-4.786,8.112,8.112,0,0,1,3.025-3.266A8.618,8.618,0,0,1,86.111,7.69a8.336,8.336,0,0,1,4.335,1.117,7.881,7.881,0,0,1,2.94,3.057,8.847,8.847,0,0,1,1.059,4.314c0,.257-.006.523-.017.8s-.028.571-.049.873H81.71a4.59,4.59,0,0,0,1.362,3.178,4.185,4.185,0,0,0,2.974,1.153,3.791,3.791,0,0,0,2.2-.612,3.743,3.743,0,0,0,1.328-1.59h4.37a8.388,8.388,0,0,1-1.563,2.987,7.727,7.727,0,0,1-2.688,2.113,8.206,8.206,0,0,1-3.612.769Zm.034-14.532a4.482,4.482,0,0,0-2.789.925,4.327,4.327,0,0,0-1.545,2.812h8.3a3.83,3.83,0,0,0-1.209-2.724,3.93,3.93,0,0,0-2.755-1.012" transform="translate(-5.699 -0.284)"></path>
  <path id="Path_598" data-name="Path 598" d="M104.611,25.569a7.587,7.587,0,0,1-4.2-1.188,8.391,8.391,0,0,1-2.924-3.248,9.97,9.97,0,0,1-1.076-4.68,9.866,9.866,0,0,1,1.076-4.663,8.265,8.265,0,0,1,2.924-3.213,7.677,7.677,0,0,1,4.2-1.17,7.033,7.033,0,0,1,3.292.735,5.991,5.991,0,0,1,2.285,2.061V0h4.3V25.151h-3.83l-.47-2.479a7.79,7.79,0,0,1-2.134,2.024A6.166,6.166,0,0,1,104.611,25.569Zm.909-3.912a4.417,4.417,0,0,0,3.41-1.449,5.287,5.287,0,0,0,1.328-3.72,5.286,5.286,0,0,0-1.328-3.719,4.735,4.735,0,0,0-6.8-.016,5.2,5.2,0,0,0-1.344,3.7,5.316,5.316,0,0,0,1.344,3.738,4.405,4.405,0,0,0,3.393,1.467Z" transform="translate(-7.096)"></path>
  <path id="Path_599" data-name="Path 599" d="M124.148,25.869a5.944,5.944,0,0,1-4.822-2.025,9.038,9.038,0,0,1-1.7-5.937V8.127H121.9v9.362a5.718,5.718,0,0,0,.874,3.423,3.191,3.191,0,0,0,2.755,1.188,3.734,3.734,0,0,0,2.94-1.327,5.446,5.446,0,0,0,1.159-3.7V8.129h4.3V25.455h-3.8l-.336-2.935a6,6,0,0,1-2.234,2.446,6.343,6.343,0,0,1-3.411.907Z" transform="translate(-8.657 -0.3)"></path>
  <path id="Path_600" data-name="Path 600" d="M137.252,25.434V8.108h3.832l.4,3.249a7.147,7.147,0,0,1,2.47-2.672,6.7,6.7,0,0,1,3.679-1v4.715h-1.21a6.634,6.634,0,0,0-2.519.454,3.444,3.444,0,0,0-1.731,1.572,6.455,6.455,0,0,0-.622,3.109v7.893h-4.3Z" transform="translate(-10.102 -0.284)"></path>
  <path id="Path_601" data-name="Path 601" d="M156.625,25.853a8.834,8.834,0,0,1-4.47-1.117,7.925,7.925,0,0,1-3.056-3.144,9.6,9.6,0,0,1-1.109-4.68,10.276,10.276,0,0,1,1.092-4.786,8.105,8.105,0,0,1,3.025-3.266,8.618,8.618,0,0,1,4.552-1.169,8.336,8.336,0,0,1,4.335,1.117,7.888,7.888,0,0,1,2.94,3.057,8.846,8.846,0,0,1,1.058,4.314c0,.257-.006.523-.016.8s-.028.571-.05.873H152.258a4.59,4.59,0,0,0,1.361,3.178,4.188,4.188,0,0,0,2.974,1.153,3.8,3.8,0,0,0,2.2-.612,3.75,3.75,0,0,0,1.328-1.59h4.369a8.386,8.386,0,0,1-1.562,2.987,7.736,7.736,0,0,1-2.688,2.113,8.21,8.21,0,0,1-3.613.769Zm.034-14.532a4.482,4.482,0,0,0-2.789.925,4.323,4.323,0,0,0-1.545,2.812h8.3a3.833,3.833,0,0,0-1.209-2.724,3.931,3.931,0,0,0-2.755-1.012" transform="translate(-10.892 -0.284)"></path>
  <path id="Path_602" data-name="Path 602" d="M53.739,20.83a4.709,4.709,0,1,1-4.525,4.7,4.617,4.617,0,0,1,4.525-4.7" transform="translate(-3.622 -0.77)" fill="#4a65d3"></path>
  <path id="Path_603" data-name="Path 603" d="M0,33.12V8.109H3.832L4.3,10.59A7.763,7.763,0,0,1,6.436,8.565a6.166,6.166,0,0,1,3.443-.872,7.59,7.59,0,0,1,4.2,1.187A8.416,8.416,0,0,1,17,12.13a9.979,9.979,0,0,1,1.075,4.679A9.874,9.874,0,0,1,17,21.472a8.284,8.284,0,0,1-2.925,3.214,7.68,7.68,0,0,1-4.2,1.169,7.03,7.03,0,0,1-3.292-.734A6,6,0,0,1,4.3,23.06V33.122H0ZM8.971,21.941a4.451,4.451,0,0,0,3.392-1.431,5.191,5.191,0,0,0,1.345-3.7,5.323,5.323,0,0,0-1.345-3.739A4.4,4.4,0,0,0,8.971,11.6,4.452,4.452,0,0,0,5.56,13.052a5.293,5.293,0,0,0-1.328,3.719,5.294,5.294,0,0,0,1.328,3.72,4.417,4.417,0,0,0,3.411,1.449" transform="translate(0 -0.284)"></path>
  <path id="Path_604" data-name="Path 604" d="M20.928,25.434V8.108H24.76l.4,3.249a7.138,7.138,0,0,1,2.469-2.672,6.7,6.7,0,0,1,3.679-1v4.715H30.1a6.634,6.634,0,0,0-2.519.454A3.444,3.444,0,0,0,25.85,14.43a6.455,6.455,0,0,0-.622,3.109v7.893h-4.3Z" transform="translate(-1.541 -0.284)"></path>
  <path id="Path_605" data-name="Path 605" d="M40.2,25.852A8.235,8.235,0,0,1,32.791,21.5a9.647,9.647,0,0,1-1.126-4.732,9.523,9.523,0,0,1,1.143-4.731,8.44,8.44,0,0,1,3.076-3.2,8.335,8.335,0,0,1,4.35-1.153,8.23,8.23,0,0,1,4.319,1.153,8.32,8.32,0,0,1,3.057,3.2,9.646,9.646,0,0,1,1.125,4.731A9.667,9.667,0,0,1,47.61,21.5a8.291,8.291,0,0,1-7.41,4.349Zm0-3.876a3.907,3.907,0,0,0,2.924-1.31,5.46,5.46,0,0,0,1.244-3.9,5.46,5.46,0,0,0-1.244-3.895,3.873,3.873,0,0,0-2.889-1.31,3.961,3.961,0,0,0-2.94,1.31,5.507,5.507,0,0,0-1.226,3.895,5.515,5.515,0,0,0,1.226,3.9,3.854,3.854,0,0,0,2.906,1.31" transform="translate(-2.33 -0.284)"></path>
</svg>
