<?xml version="1.0" encoding="UTF-8"?>
<!-- Generator: Adobe Illustrator 27.8.1, SVG Export Plug-In . SVG Version: 6.00 Build 0)  -->
<svg xmlns="http://www.w3.org/2000/svg" xmlns:xlink="http://www.w3.org/1999/xlink" version="1.1" id="Layer_1" x="0px" y="0px" viewBox="0 0 492.9 68.1" style="enable-background:new 0 0 492.9 68.1;" xml:space="preserve">
<style type="text/css">
	.st0{enable-background:new    ;}
	.st1{fill:#FFFFFF;}
	.st2{fill:url(#SVGID_1_);}
	.st3{fill:url(#SVGID_00000160167264831690685900000000717789756488752782_);}
	.st4{fill:url(#SVGID_00000071543529190350767870000003441226294189544065_);}
	.st5{fill:url(#SVGID_00000071561839700609723870000013659656572046911886_);}
</style>
<g class="st0">
	<path class="st1" d="M42.4,43.2c-1.4,0-2.4-0.3-3.2-1c-0.8-0.7-1.2-1.8-1.2-3.6v-8.2h-2.6v-2.1H38l0.3-3.6h2.2v3.6h4.4v2.1h-4.4   v8.2c0,0.9,0.2,1.6,0.6,1.9c0.4,0.3,1,0.5,2,0.5h1.6v2.2H42.4z"></path>
	<path class="st1" d="M48.1,43.2V21.6h2.5v9.3c0.5-0.9,1.2-1.6,2.1-2.1c0.9-0.5,1.9-0.8,3-0.8c1.7,0,3.1,0.5,4.1,1.6   s1.6,2.7,1.6,4.9v8.7h-2.5v-8.4c0-3.1-1.3-4.7-3.8-4.7c-1.3,0-2.4,0.5-3.3,1.4c-0.9,0.9-1.3,2.3-1.3,4v7.7H48.1z"></path>
	<path class="st1" d="M66.8,25c-0.5,0-0.9-0.2-1.2-0.5S65,23.7,65,23.2c0-0.5,0.2-0.9,0.5-1.2c0.3-0.3,0.7-0.5,1.2-0.5   c0.5,0,0.9,0.2,1.2,0.5c0.3,0.3,0.5,0.7,0.5,1.2c0,0.5-0.2,0.9-0.5,1.2C67.7,24.8,67.3,25,66.8,25z M65.5,43.2V28.3H68v14.9H65.5z"></path>
	<path class="st1" d="M72.4,43.2V28.3h2.3l0.1,2.7c0.5-0.9,1.2-1.7,2.1-2.2c0.9-0.5,1.9-0.8,3.1-0.8c1.8,0,3.2,0.5,4.2,1.6   c1,1.1,1.6,2.7,1.6,4.9v8.7h-2.5v-8.4c0-3.1-1.3-4.7-3.8-4.7c-1.3,0-2.3,0.5-3.2,1.4c-0.9,0.9-1.3,2.3-1.3,4v7.7H72.4z"></path>
	<path class="st1" d="M89.6,43.2V21.6h2.5v13l6.1-6.3h3.1L94.7,35l7.4,8.2h-3.2l-6.8-7.7v7.7H89.6z"></path>
</g>
<g class="st0">
	<path class="st1" d="M197.8,43.5c-1.2,0-2.3-0.3-3.3-0.8c-1-0.5-1.7-1.2-2.2-2.1l-0.2,2.5h-2.3V21.6h2.5v9.2c0.5-0.7,1.2-1.4,2.1-2   c0.9-0.6,2-0.9,3.4-0.9c1.5,0,2.8,0.3,3.9,1c1.1,0.7,2,1.6,2.6,2.8c0.6,1.2,0.9,2.5,0.9,4c0,1.5-0.3,2.8-0.9,4   c-0.6,1.2-1.5,2.1-2.6,2.8C200.6,43.2,199.3,43.5,197.8,43.5z M197.5,41.3c1,0,1.9-0.2,2.6-0.7c0.8-0.5,1.4-1.1,1.8-2   s0.7-1.8,0.7-2.9c0-1.1-0.2-2.1-0.7-2.9s-1-1.5-1.8-2c-0.8-0.5-1.6-0.7-2.6-0.7c-1,0-1.9,0.2-2.6,0.7c-0.8,0.5-1.4,1.1-1.8,2   c-0.4,0.8-0.7,1.8-0.7,2.9c0,1.1,0.2,2.1,0.7,2.9c0.4,0.8,1,1.5,1.8,2C195.6,41.1,196.5,41.3,197.5,41.3z"></path>
	<path class="st1" d="M214.1,43.5c-1.8,0-3.2-0.5-4.2-1.6c-1-1.1-1.6-2.7-1.6-4.9v-8.7h2.5v8.4c0,3.1,1.3,4.7,3.8,4.7   c1.3,0,2.4-0.5,3.2-1.4c0.9-0.9,1.3-2.3,1.3-4v-7.7h2.5v14.9h-2.3l-0.2-2.7c-0.5,0.9-1.1,1.7-2.1,2.2   C216.3,43.2,215.3,43.5,214.1,43.5z"></path>
	<path class="st1" d="M227.4,25c-0.5,0-0.9-0.2-1.2-0.5s-0.5-0.7-0.5-1.2c0-0.5,0.2-0.9,0.5-1.2c0.3-0.3,0.7-0.5,1.2-0.5   c0.5,0,0.9,0.2,1.2,0.5c0.3,0.3,0.5,0.7,0.5,1.2c0,0.5-0.2,0.9-0.5,1.2C228.3,24.8,227.9,25,227.4,25z M226.1,43.2V28.3h2.5v14.9   H226.1z"></path>
	<path class="st1" d="M233,43.2V21.6h2.5v21.6H233z"></path>
	<path class="st1" d="M246.4,43.5c-1.5,0-2.8-0.3-3.9-1s-2-1.6-2.6-2.8c-0.6-1.2-0.9-2.5-0.9-4c0-1.5,0.3-2.8,0.9-4   c0.6-1.2,1.5-2.1,2.6-2.8c1.1-0.7,2.4-1,3.9-1c1.2,0,2.3,0.3,3.2,0.8c0.9,0.5,1.7,1.2,2.2,2.1v-9.2h2.5v21.6h-2.3l-0.2-2.5   c-0.5,0.7-1.2,1.4-2.1,2C248.9,43.2,247.8,43.5,246.4,43.5z M246.7,41.3c1,0,1.9-0.2,2.7-0.7c0.8-0.5,1.4-1.1,1.8-2   s0.6-1.8,0.6-2.9c0-1.1-0.2-2.1-0.6-2.9s-1-1.5-1.8-2c-0.8-0.5-1.7-0.7-2.7-0.7c-1,0-1.9,0.2-2.6,0.7s-1.4,1.1-1.8,2   c-0.4,0.8-0.6,1.8-0.6,2.9c0,1.1,0.2,2.1,0.6,2.9c0.4,0.8,1,1.5,1.8,2C244.8,41.1,245.7,41.3,246.7,41.3z"></path>
</g>
<g class="st0">
	<path class="st1" d="M339.6,43.2V28.3h2.3l0.2,2.2c0.5-0.8,1.1-1.4,1.9-1.9c0.8-0.4,1.7-0.7,2.7-0.7c1.2,0,2.2,0.2,3,0.7   c0.9,0.5,1.5,1.2,2,2.2c0.5-0.9,1.2-1.6,2.1-2.1c0.9-0.5,1.9-0.8,3-0.8c1.8,0,3.2,0.5,4.3,1.6s1.6,2.7,1.6,4.9v8.7h-2.5v-8.4   c0-1.5-0.3-2.7-0.9-3.5s-1.5-1.2-2.7-1.2c-1.2,0-2.2,0.5-3,1.4c-0.8,0.9-1.2,2.3-1.2,4v7.7h-2.5v-8.4c0-1.5-0.3-2.7-0.9-3.5   s-1.5-1.2-2.7-1.2c-1.2,0-2.2,0.5-3,1.4c-0.8,0.9-1.2,2.3-1.2,4v7.7H339.6z"></path>
	<path class="st1" d="M373.2,43.5c-1.4,0-2.7-0.3-3.8-1c-1.1-0.6-2-1.6-2.6-2.7c-0.6-1.2-0.9-2.5-0.9-4.1c0-1.6,0.3-2.9,0.9-4.1   c0.6-1.2,1.5-2.1,2.6-2.7c1.1-0.7,2.4-1,3.9-1c1.4,0,2.7,0.3,3.7,1c1,0.6,1.9,1.5,2.4,2.6c0.6,1.1,0.8,2.2,0.8,3.4   c0,0.2,0,0.4,0,0.7c0,0.2,0,0.5,0,0.8h-11.8c0.1,1.1,0.3,2.1,0.8,2.8s1.1,1.3,1.8,1.7c0.7,0.4,1.5,0.6,2.3,0.6c1,0,1.9-0.2,2.6-0.7   c0.7-0.5,1.2-1.1,1.5-2h2.5c-0.4,1.4-1.2,2.5-2.3,3.4S374.9,43.5,373.2,43.5z M373.2,30c-1.2,0-2.3,0.4-3.2,1.1   c-0.9,0.7-1.5,1.8-1.6,3.2h9.4c-0.1-1.3-0.5-2.4-1.4-3.1C375.5,30.4,374.4,30,373.2,30z"></path>
	<path class="st1" d="M388.5,43.5c-1.2,0-2.3-0.2-3.1-0.6c-0.8-0.4-1.4-1-1.8-1.7c-0.4-0.7-0.6-1.5-0.6-2.3c0-1.5,0.6-2.7,1.7-3.5   c1.2-0.8,2.7-1.2,4.7-1.2h4V34c0-1.3-0.3-2.3-1-3c-0.7-0.7-1.6-1-2.7-1c-1,0-1.8,0.2-2.5,0.7s-1.2,1.2-1.3,2.1h-2.6   c0.1-1.1,0.5-2,1.1-2.7c0.6-0.7,1.4-1.3,2.4-1.7c0.9-0.4,1.9-0.6,3-0.6c2.1,0,3.6,0.6,4.7,1.7c1,1.1,1.6,2.6,1.6,4.4v9.2h-2.2   l-0.2-2.7c-0.4,0.8-1,1.6-1.8,2.1C390.9,43.2,389.8,43.5,388.5,43.5z M388.9,41.4c1,0,1.8-0.2,2.5-0.8c0.7-0.5,1.2-1.2,1.6-2   c0.4-0.8,0.5-1.6,0.5-2.5v0h-3.8c-1.5,0-2.5,0.3-3.1,0.8c-0.6,0.5-0.9,1.1-0.9,1.9c0,0.8,0.3,1.4,0.9,1.9S387.8,41.4,388.9,41.4z"></path>
	<path class="st1" d="M405.5,43.5c-1.8,0-3.3-0.5-4.4-1.4c-1.2-0.9-1.9-2.1-2.1-3.7h2.6c0.2,0.8,0.6,1.5,1.2,2s1.6,0.9,2.7,0.9   c1.1,0,1.8-0.2,2.3-0.7c0.5-0.4,0.8-1,0.8-1.6c0-0.9-0.3-1.5-1-1.8c-0.7-0.3-1.6-0.6-2.7-0.8c-0.8-0.2-1.6-0.4-2.4-0.7   c-0.8-0.3-1.5-0.7-2-1.3c-0.5-0.5-0.8-1.3-0.8-2.2c0-1.3,0.5-2.4,1.5-3.2c1-0.8,2.3-1.2,3.9-1.2c1.6,0,2.9,0.4,3.9,1.2   c1,0.8,1.6,1.9,1.8,3.4h-2.5c-0.1-0.8-0.4-1.4-1-1.8c-0.6-0.4-1.3-0.6-2.2-0.6c-0.9,0-1.6,0.2-2.1,0.6c-0.5,0.4-0.7,0.9-0.7,1.5   c0,0.6,0.3,1.1,0.9,1.4s1.5,0.6,2.6,0.9c0.9,0.2,1.8,0.4,2.6,0.7c0.8,0.3,1.5,0.7,2,1.3c0.5,0.6,0.8,1.4,0.8,2.5   c0,1.3-0.5,2.4-1.5,3.3S407.2,43.5,405.5,43.5z"></path>
	<path class="st1" d="M420.2,43.5c-1.8,0-3.2-0.5-4.2-1.6c-1-1.1-1.6-2.7-1.6-4.9v-8.7h2.5v8.4c0,3.1,1.3,4.7,3.8,4.7   c1.3,0,2.4-0.5,3.2-1.4c0.9-0.9,1.3-2.3,1.3-4v-7.7h2.5v14.9h-2.3l-0.2-2.7c-0.5,0.9-1.1,1.7-2.1,2.2S421.3,43.5,420.2,43.5z"></path>
	<path class="st1" d="M431.9,43.2V28.3h2.3l0.2,2.8c0.5-1,1.2-1.8,2.1-2.3c0.9-0.6,2.1-0.9,3.5-0.9v2.6h-0.7c-0.9,0-1.7,0.2-2.4,0.5   s-1.3,0.8-1.8,1.6c-0.4,0.7-0.7,1.8-0.7,3.1v7.5H431.9z"></path>
	<path class="st1" d="M448.9,43.5c-1.4,0-2.7-0.3-3.8-1c-1.1-0.6-2-1.6-2.6-2.7c-0.6-1.2-0.9-2.5-0.9-4.1c0-1.6,0.3-2.9,0.9-4.1   s1.5-2.1,2.6-2.7c1.1-0.7,2.4-1,3.9-1c1.4,0,2.7,0.3,3.7,1c1,0.6,1.9,1.5,2.4,2.6c0.6,1.1,0.8,2.2,0.8,3.4c0,0.2,0,0.4,0,0.7   c0,0.2,0,0.5,0,0.8h-11.8c0.1,1.1,0.3,2.1,0.8,2.8c0.5,0.8,1.1,1.3,1.8,1.7s1.5,0.6,2.3,0.6c1,0,1.9-0.2,2.6-0.7   c0.7-0.5,1.2-1.1,1.5-2h2.5c-0.4,1.4-1.2,2.5-2.3,3.4C452.1,43.1,450.7,43.5,448.9,43.5z M448.9,30c-1.2,0-2.3,0.4-3.2,1.1   c-0.9,0.7-1.5,1.8-1.6,3.2h9.4c-0.1-1.3-0.5-2.4-1.4-3.1C451.3,30.4,450.2,30,448.9,30z"></path>
</g>
<g>
	<g>
		<path class="st1" d="M34.8,64c-7.9,0-15.4-3.1-21-8.7C8.1,49.6,4.9,42,4.9,34h4c0,7,2.7,13.5,7.7,18.5C21.5,57.3,28,60,34.8,60    c0.1,0,0.1,0,0.2,0h73.4c7.6,0,15-3.1,20.4-8.4l19.1-19l2.8,2.8l-19.1,19c-6.1,6.1-14.6,9.6-23.2,9.6H35C34.9,64,34.9,64,34.8,64z    "></path>
	</g>
	<g>
		
			<linearGradient id="SVGID_1_" gradientUnits="userSpaceOnUse" x1="4.7998" y1="749.2199" x2="146.814" y2="749.2199" gradientTransform="matrix(1 0 0 1 0 -730.3201)">
			<stop offset="0" style="stop-color:#FFFFFF"></stop>
			<stop offset="9.000000e-02" style="stop-color:#FFFFFF;stop-opacity:0.98"></stop>
			<stop offset="0.22" style="stop-color:#FFFFFF;stop-opacity:0.91"></stop>
			<stop offset="0.36" style="stop-color:#FFFFFF;stop-opacity:0.8"></stop>
			<stop offset="0.52" style="stop-color:#FFFFFF;stop-opacity:0.65"></stop>
			<stop offset="0.69" style="stop-color:#FFFFFF;stop-opacity:0.45"></stop>
			<stop offset="0.86" style="stop-color:#FFFFFF;stop-opacity:0.21"></stop>
			<stop offset="1" style="stop-color:#FFFFFF;stop-opacity:0"></stop>
		</linearGradient>
		<path class="st2" d="M8.8,33.9h-4c0-8,3.2-15.6,8.9-21.3c5.7-5.7,13.2-8.8,21.2-8.7h73.4c8.7,0,17.1,3.5,23.2,9.6l15.3,15.3    l-2.8,2.8l-15.3-15.3c-5.3-5.3-12.8-8.4-20.4-8.4H34.9c-6.9-0.1-13.4,2.6-18.4,7.6C11.5,20.4,8.8,27,8.8,33.9z"></path>
	</g>
	<g>
		
			<linearGradient id="SVGID_00000038411142228931572420000018157080668898737067_" gradientUnits="userSpaceOnUse" x1="147.6506" y1="750.0774" x2="292.4684" y2="750.0774" gradientTransform="matrix(1 0 0 1 0 -730.3201)">
			<stop offset="0" style="stop-color:#FFFFFF"></stop>
			<stop offset="9.000000e-02" style="stop-color:#FFFFFF;stop-opacity:0.98"></stop>
			<stop offset="0.22" style="stop-color:#FFFFFF;stop-opacity:0.91"></stop>
			<stop offset="0.36" style="stop-color:#FFFFFF;stop-opacity:0.8"></stop>
			<stop offset="0.52" style="stop-color:#FFFFFF;stop-opacity:0.65"></stop>
			<stop offset="0.69" style="stop-color:#FFFFFF;stop-opacity:0.45"></stop>
			<stop offset="0.86" style="stop-color:#FFFFFF;stop-opacity:0.21"></stop>
			<stop offset="1" style="stop-color:#FFFFFF;stop-opacity:0"></stop>
		</linearGradient>
		<path style="fill:url(#SVGID_00000038411142228931572420000018157080668898737067_);" d="M150.3,35.5l-2.8-2.8l19.1-19.1    c6.2-6.1,14.7-9.6,23.3-9.6h64.6c8.9,0,17.1,3.4,23.3,9.6l14.7,14.7l-2.8,2.8L275,16.4C269.6,11,262.3,8,254.5,8h-64.6    c-7.6,0-15,3.1-20.5,8.4L150.3,35.5z"></path>
	</g>
	<g>
		
			<linearGradient id="SVGID_00000079472152896618692490000002173420237669902519_" gradientUnits="userSpaceOnUse" x1="151.4858" y1="778.6147" x2="296.8184" y2="778.6147" gradientTransform="matrix(1 0 0 1 0 -730.3201)">
			<stop offset="0" style="stop-color:#FFFFFF;stop-opacity:0"></stop>
			<stop offset="0.14" style="stop-color:#FFFFFF;stop-opacity:0.21"></stop>
			<stop offset="0.31" style="stop-color:#FFFFFF;stop-opacity:0.45"></stop>
			<stop offset="0.48" style="stop-color:#FFFFFF;stop-opacity:0.65"></stop>
			<stop offset="0.64" style="stop-color:#FFFFFF;stop-opacity:0.8"></stop>
			<stop offset="0.78" style="stop-color:#FFFFFF;stop-opacity:0.91"></stop>
			<stop offset="0.91" style="stop-color:#FFFFFF;stop-opacity:0.98"></stop>
			<stop offset="1" style="stop-color:#FFFFFF"></stop>
		</linearGradient>
		<path style="fill:url(#SVGID_00000079472152896618692490000002173420237669902519_);" d="M254.6,64H190c-8.9,0-17.1-3.4-23.3-9.6    l-15.2-15.2l2.8-2.8l15.2,15.2C174.9,57,182.2,60,190,60h64.6c7.6,0,15-3.1,20.5-8.4l18.9-19l2.8,2.8l-18.9,19    C271.7,60.5,263.2,64,254.6,64z"></path>
	</g>
	<g>
		
			<linearGradient id="SVGID_00000089548679795549000770000007030511915311225513_" gradientUnits="userSpaceOnUse" x1="297.6855" y1="779.4702" x2="488" y2="779.4702" gradientTransform="matrix(1 0 0 1 0 -730.3201)">
			<stop offset="0" style="stop-color:#FFFFFF;stop-opacity:0"></stop>
			<stop offset="0.14" style="stop-color:#FFFFFF;stop-opacity:0.21"></stop>
			<stop offset="0.31" style="stop-color:#FFFFFF;stop-opacity:0.45"></stop>
			<stop offset="0.48" style="stop-color:#FFFFFF;stop-opacity:0.65"></stop>
			<stop offset="0.64" style="stop-color:#FFFFFF;stop-opacity:0.8"></stop>
			<stop offset="0.78" style="stop-color:#FFFFFF;stop-opacity:0.91"></stop>
			<stop offset="0.91" style="stop-color:#FFFFFF;stop-opacity:0.98"></stop>
			<stop offset="1" style="stop-color:#FFFFFF"></stop>
		</linearGradient>
		<path style="fill:url(#SVGID_00000089548679795549000770000007030511915311225513_);" d="M457.9,64.2H336.1    c-8.9,0-17.1-3.4-23.3-9.6l-15.1-15.1l2.8-2.8l15.1,15.1c5.4,5.4,12.7,8.4,20.5,8.4h121.8c14.4,0,26.1-11.7,26.1-26.1h4    C488,50.7,474.5,64.2,457.9,64.2z"></path>
	</g>
	<g>
		<path class="st1" d="M296.6,35.5l-2.8-2.8l19.1-19.1c6.2-6.2,14.5-9.6,23.3-9.6H458c16.6,0,30.1,13.5,30.1,30.1h-4    C484.1,19.7,472.4,8,458,8H336.2c-7.8,0-15.1,3-20.5,8.4L296.6,35.5z"></path>
	</g>
</g>
</svg>
