<?xml version="1.0" encoding="UTF-8"?>
<svg xmlns="http://www.w3.org/2000/svg" id="logo" width="322.283" height="68.676" viewBox="0 0 322.283 68.676">
  <path id="Path_596" data-name="Path 596" d="M76.6,45.676a18.147,18.147,0,0,1-9.414-2.411,17.2,17.2,0,0,1-6.432-6.721A20.236,20.236,0,0,1,58.4,26.683a20.236,20.236,0,0,1,2.352-9.861A17.216,17.216,0,0,1,67.186,10.1,18.147,18.147,0,0,1,76.6,7.69,17.549,17.549,0,0,1,87.842,11.3a16.277,16.277,0,0,1,5.834,9.972H84.19a7.179,7.179,0,0,0-2.778-4.125A8.469,8.469,0,0,0,70.2,18.576q-2.6,2.918-2.6,8.107t2.6,8.107a8.155,8.155,0,0,0,6.326,2.922,8.248,8.248,0,0,0,4.882-1.46,7.114,7.114,0,0,0,2.778-4.165h9.486a16.612,16.612,0,0,1-5.834,9.861A17.2,17.2,0,0,1,76.6,45.676" transform="translate(54.75 7.799)" fill="#fff" opacity="0.6"></path>
  <path id="Path_597" data-name="Path 597" d="M95.5,45.676a18.481,18.481,0,0,1-9.348-2.336,16.587,16.587,0,0,1-6.392-6.576,20.067,20.067,0,0,1-2.319-9.789,21.491,21.491,0,0,1,2.284-10.01,16.965,16.965,0,0,1,6.326-6.83A18.023,18.023,0,0,1,95.573,7.69a17.434,17.434,0,0,1,9.065,2.336,16.483,16.483,0,0,1,6.15,6.393A18.5,18.5,0,0,1,113,25.44c0,.538-.014,1.094-.035,1.68s-.058,1.194-.1,1.825h-26.5a9.6,9.6,0,0,0,2.848,6.647A8.752,8.752,0,0,0,95.435,38a7.928,7.928,0,0,0,4.6-1.279,7.828,7.828,0,0,0,2.778-3.325h9.139a17.543,17.543,0,0,1-3.268,6.248,16.161,16.161,0,0,1-5.623,4.419,17.163,17.163,0,0,1-7.554,1.607Zm.072-30.391a9.373,9.373,0,0,0-5.834,1.934A9.049,9.049,0,0,0,86.507,23.1h17.356a8.01,8.01,0,0,0-2.528-5.7,8.219,8.219,0,0,0-5.762-2.117" transform="translate(72.6 7.799)" fill="#fff" opacity="0.6"></path>
  <path id="Path_598" data-name="Path 598" d="M113.559,53.475a15.867,15.867,0,0,1-8.783-2.485A17.549,17.549,0,0,1,98.661,44.2a20.851,20.851,0,0,1-2.249-9.789,20.634,20.634,0,0,1,2.249-9.752,17.285,17.285,0,0,1,6.115-6.719,16.056,16.056,0,0,1,8.783-2.447,14.708,14.708,0,0,1,6.886,1.537,12.53,12.53,0,0,1,4.78,4.31V0h8.992V52.6h-8.009l-.982-5.184a16.292,16.292,0,0,1-4.464,4.234A12.9,12.9,0,0,1,113.559,53.475Zm1.9-8.181a9.239,9.239,0,0,0,7.132-3.031,11.057,11.057,0,0,0,2.778-7.781,11.055,11.055,0,0,0-2.778-7.779,9.9,9.9,0,0,0-14.229-.034,10.869,10.869,0,0,0-2.811,7.744,11.117,11.117,0,0,0,2.811,7.817,9.213,9.213,0,0,0,7.1,3.068Z" transform="translate(90.382)" fill="#fff" opacity="0.6"></path>
  <path id="Path_599" data-name="Path 599" d="M131.262,45.233q-6.533,0-10.085-4.236T117.63,28.58V8.127h8.922V27.706q0,4.671,1.827,7.158t5.762,2.485a7.809,7.809,0,0,0,6.15-2.775q2.424-2.776,2.424-7.744V8.131h8.994V44.367h-7.942l-.7-6.139a12.559,12.559,0,0,1-4.671,5.116,13.265,13.265,0,0,1-7.134,1.9Z" transform="translate(110.275 8.242)" fill="#fff" opacity="0.6"></path>
  <path id="Path_600" data-name="Path 600" d="M137.252,44.8V8.564h8.013l.841,6.8a14.948,14.948,0,0,1,5.165-5.587,14.014,14.014,0,0,1,7.694-2.083v9.861h-2.53a13.873,13.873,0,0,0-5.268.949,7.2,7.2,0,0,0-3.621,3.287,13.5,13.5,0,0,0-1.3,6.5V44.8h-8.994Z" transform="translate(128.667 7.799)" fill="#fff" opacity="0.6"></path>
  <path id="Path_601" data-name="Path 601" d="M166.049,45.676A18.476,18.476,0,0,1,156.7,43.34a16.574,16.574,0,0,1-6.392-6.576,20.067,20.067,0,0,1-2.319-9.789,21.491,21.491,0,0,1,2.284-10.01,16.952,16.952,0,0,1,6.326-6.83,18.023,18.023,0,0,1,9.521-2.445,17.434,17.434,0,0,1,9.065,2.336,16.5,16.5,0,0,1,6.15,6.393,18.5,18.5,0,0,1,2.213,9.021c0,.538-.012,1.094-.033,1.68s-.058,1.194-.1,1.825H156.916a9.6,9.6,0,0,0,2.846,6.647A8.759,8.759,0,0,0,165.981,38a7.938,7.938,0,0,0,4.605-1.279,7.842,7.842,0,0,0,2.778-3.325H182.5a17.538,17.538,0,0,1-3.267,6.248,16.179,16.179,0,0,1-5.623,4.419,17.171,17.171,0,0,1-7.556,1.607Zm.072-30.391a9.373,9.373,0,0,0-5.834,1.934,9.041,9.041,0,0,0-3.232,5.881h17.356a8.017,8.017,0,0,0-2.528-5.7,8.222,8.222,0,0,0-5.762-2.117" transform="translate(138.735 7.799)" fill="#fff" opacity="0.6"></path>
  <path id="Path_602" data-name="Path 602" d="M58.678,20.83a9.657,9.657,0,0,1,9.465,9.839,9.472,9.472,0,1,1-18.929,0,9.657,9.657,0,0,1,9.465-9.839" transform="translate(46.137 21.124)" fill="#fff"></path>
  <path id="Path_603" data-name="Path 603" d="M0,60.87V8.563H8.013L9,13.751A16.235,16.235,0,0,1,13.46,9.516a12.9,12.9,0,0,1,7.2-1.823,15.873,15.873,0,0,1,8.783,2.483,17.6,17.6,0,0,1,6.117,6.8,20.871,20.871,0,0,1,2.247,9.787,20.65,20.65,0,0,1-2.247,9.752,17.326,17.326,0,0,1-6.117,6.721,16.062,16.062,0,0,1-8.783,2.445,14.7,14.7,0,0,1-6.886-1.535A12.539,12.539,0,0,1,9,39.832V60.874H0ZM18.762,37.492A9.309,9.309,0,0,0,25.857,34.5a10.856,10.856,0,0,0,2.813-7.744,11.132,11.132,0,0,0-2.813-7.819,9.2,9.2,0,0,0-7.095-3.065A9.31,9.31,0,0,0,11.629,18.9,11.07,11.07,0,0,0,8.85,26.68a11.072,11.072,0,0,0,2.778,7.781,9.237,9.237,0,0,0,7.134,3.031" transform="translate(0 7.802)" fill="#fff" opacity="0.6"></path>
  <path id="Path_604" data-name="Path 604" d="M20.928,44.8V8.564h8.013l.843,6.8a14.928,14.928,0,0,1,5.163-5.587A14.014,14.014,0,0,1,42.641,7.69v9.861h-2.53a13.873,13.873,0,0,0-5.268.949,7.2,7.2,0,0,0-3.621,3.287,13.5,13.5,0,0,0-1.3,6.5V44.8H20.928Z" transform="translate(19.619 7.799)" fill="#fff" opacity="0.6"></path>
  <path id="Path_605" data-name="Path 605" d="M49.511,45.675a17.223,17.223,0,0,1-15.492-9.1,20.176,20.176,0,0,1-2.354-9.9,19.917,19.917,0,0,1,2.391-9.9A17.652,17.652,0,0,1,40.488,10.1a17.433,17.433,0,0,1,9.1-2.411A17.212,17.212,0,0,1,58.619,10.1a17.4,17.4,0,0,1,6.394,6.687,20.173,20.173,0,0,1,2.352,9.9,20.218,20.218,0,0,1-2.352,9.9,17.34,17.34,0,0,1-15.5,9.1Zm0-8.107a8.171,8.171,0,0,0,6.115-2.739q2.6-2.737,2.6-8.147t-2.6-8.145A8.1,8.1,0,0,0,49.583,15.8a8.283,8.283,0,0,0-6.15,2.739q-2.563,2.734-2.563,8.145t2.563,8.147a8.061,8.061,0,0,0,6.078,2.739" transform="translate(29.685 7.798)" fill="#fff" opacity="0.6"></path>
</svg>
