<?xml version="1.0" encoding="UTF-8"?>
<svg xmlns="http://www.w3.org/2000/svg" width="37.94" height="37.94" viewBox="0 0 37.94 37.94">
  <path id="twitter" d="M549.418.149a18.97,18.97,0,1,0,18.969,18.97A18.97,18.97,0,0,0,549.418.149M559.31,15.7a12.437,12.437,0,0,1-19.133,11.044,8.786,8.786,0,0,0,6.474-1.811,4.373,4.373,0,0,1-4.084-3.037,4.374,4.374,0,0,0,1.974-.075,4.378,4.378,0,0,1-3.508-4.343,4.354,4.354,0,0,0,1.982.548,4.378,4.378,0,0,1-1.354-5.839,12.412,12.412,0,0,0,9.013,4.57,4.375,4.375,0,0,1,7.452-3.989,8.756,8.756,0,0,0,2.776-1.062,4.376,4.376,0,0,1-1.922,2.419,8.738,8.738,0,0,0,2.512-.689A8.866,8.866,0,0,1,559.31,15.7" transform="translate(-530.448 -0.149)" fill="#fff"></path>
</svg>
